<svg xmlns="http://www.w3.org/2000/svg" viewBox="0 0 100 100" width="100" height="100">
  <path fill="#ffffff" d="M50,0 C22.4,0 0,22.4 0,50 C0,72.1 14.3,90.6 34.2,97.2 C36.7,97.6 37.6,96.1 37.6,94.7 C37.6,93.4 37.6,90.2 37.5,86 C23.6,89.1 20.7,79.5 20.7,79.5 C18.4,73.7 15.1,72.2 15.1,72.2 C10.6,69.1 15.5,69.2 15.5,69.2 C20.5,69.6 23.1,74.4 23.1,74.4 C27.6,82 34.8,79.7 37.7,78.4 C38.2,75.2 39.5,72.9 41,71.6 C29.9,70.3 18.1,66 18.1,47 C18.1,41.6 20.1,37.1 23.2,33.6 C22.6,32.3 20.9,27.3 23.6,20.5 C23.6,20.5 27.8,19.2 37.5,25.6 C41.4,24.5 45.7,23.9 50,23.9 C54.3,23.9 58.6,24.5 62.5,25.6 C72.2,19.2 76.4,20.5 76.4,20.5 C79.1,27.3 77.4,32.3 76.8,33.6 C79.9,37.1 81.9,41.6 81.9,47 C81.9,66.1 70.1,70.3 58.9,71.5 C60.8,73.1 62.5,76.2 62.5,80.9 C62.5,87.7 62.4,92.9 62.4,94.7 C62.4,96.1 63.3,97.7 65.8,97.2 C85.7,90.5 100,72.1 100,50 C100,22.4 77.6,0 50,0z"/>
</svg>